<svg xmlns="http://www.w3.org/2000/svg" width="410" height="404" viewBox="0 0 410 404" fill="none">
  <path d="M399.641 59.5256L215.643 388.545C211.844 395.338 202.065 395.378 198.228 388.618L10.5817 59.5563C6.38087 52.1896 12.6802 43.2665 20.8607 44.7586L205.223 77.6824C206.398 77.8941 207.601 77.8904 208.775 77.6713L389.278 44.8056C397.426 43.2892 403.754 52.1434 399.625 59.532L399.641 59.5256Z" fill="url(#paint0_linear)"/>
  <path d="M292.965 1.5744L156.801 28.2558C155.239 28.5662 153.99 29.7293 153.654 31.2871L121.535 181.147C121.058 183.387 122.965 185.435 125.236 185.146L163.234 180.199C165.643 179.892 167.7 181.996 167.254 184.388L154.774 251.27C154.312 253.77 156.566 255.943 158.998 255.355L180.657 250.246C183.093 249.657 185.35 251.846 184.879 254.35L170.21 332.78C169.701 335.59 173.247 337.335 175.048 334.999L176.716 332.839L304.28 102.807C305.546 100.411 303.38 97.6506 300.751 98.1642L262.615 105.543C260.164 106.015 258.12 103.746 258.865 101.36L298.29 1.98526C299.04 -0.412661 296.79 -2.6869 294.325 -2.20044e-05L292.965 1.5744Z" fill="url(#paint1_linear)"/>
  <defs>
    <linearGradient id="paint0_linear" x1="6.00017" y1="32.9999" x2="235" y2="344" gradientUnits="userSpaceOnUse">
      <stop stop-color="#41D1FF"/>
      <stop offset="1" stop-color="#BD34FE"/>
    </linearGradient>
    <linearGradient id="paint1_linear" x1="194.651" y1="8.81818" x2="236.076" y2="292.989" gradientUnits="userSpaceOnUse">
      <stop stop-color="#FFEA83"/>
      <stop offset="0.0833333" stop-color="#FFDD35"/>
      <stop offset="1" stop-color="#FFA800"/>
    </linearGradient>
  </defs>
</svg>

